<svg width="151" height="152" viewBox="0 0 151 152" fill="none" xmlns="http://www.w3.org/2000/svg">
<path d="M0 109.831H150.178V108.291H0V109.831Z" fill="var(--text)"/>
<path d="M45.9889 67.3123C33.0895 71.66 22.6679 82.7306 19.1057 95.8683C15.5445 109.007 18.9465 123.826 27.8823 134.093C32.2228 139.081 38.2433 143.166 44.8542 143.106C46.1255 143.096 47.4748 142.897 48.4482 142.078C49.1475 141.49 49.5767 140.64 49.893 139.782C52.2004 133.521 49.3436 126.656 46.5341 120.603C44.5143 116.251 42.9032 112.781 40.8833 108.429L103.293 108.34C105.597 113.205 103.417 117.116 101.219 122.029C99.021 126.942 96.0216 131.598 95.0317 136.888C94.0408 142.179 95.7762 148.538 100.688 150.742C105.33 152.824 110.752 150.449 114.858 147.442C127.566 138.134 134.999 122.066 133.862 106.354C132.728 90.6426 123.061 75.8106 109.146 68.4275" fill="var(--primary)"/>
<path d="M103.7 11.8897C107.917 8.17037 112.464 4.8259 117.272 1.90756C119.235 0.7164 121.998 -0.321777 123.602 1.3212C124.11 1.84284 124.381 2.5483 124.59 3.24657C127.582 13.1968 120.855 23.2642 119.422 33.5554C118.463 40.4374 119.911 47.4026 120.128 54.3483C120.344 61.2919 118.994 68.8947 113.778 73.4838C111.34 75.6289 108.444 77.4187 105.281 78.1529C65.9875 87.2879 46.4115 78.1529 46.4115 78.1529C43.412 76.9084 40.353 75.6289 37.9152 73.4838C32.6988 68.8947 31.3485 61.2919 31.5651 54.3483C31.7818 47.4026 33.2297 40.4374 32.2716 33.5554C30.8381 23.2642 24.1101 13.1968 27.1024 3.24657C27.3129 2.5483 27.5819 1.84284 28.0913 1.3212C29.6952 -0.321777 32.4575 0.7164 34.4208 1.90756C39.2286 4.8259 43.7755 8.17037 47.9928 11.8897C47.9928 11.8897 64.3979 9.95094 75.8464 9.92937C89.7942 9.9037 103.7 11.8897 103.7 11.8897Z" fill="var(--primary)"/>
<path d="M100.153 79.2661C97.9544 79.8329 95.7354 80.3197 93.5174 80.8321C91.2788 81.2182 89.0423 81.6587 86.7853 81.9555C82.2712 82.5377 77.7201 82.9484 73.1547 82.9433C68.5924 82.9413 64.0188 82.6958 59.5067 81.9647C55.0122 81.2192 50.5114 80.141 46.4102 78.153C48.5625 78.8749 50.7589 79.413 52.9821 79.8022C55.1929 80.2437 57.4315 80.5271 59.6638 80.8003C64.141 81.2849 68.6448 81.4616 73.1465 81.439L76.5249 81.4071L79.9022 81.2449C82.1582 81.2048 84.3989 80.9194 86.6549 80.792C88.9047 80.598 91.1474 80.3166 93.4024 80.1071C95.6502 79.8412 97.8887 79.5002 100.153 79.2661Z" fill="#191919"/>
<path d="M73.3207 46.4943C73.0527 46.0856 72.8463 45.6143 72.8689 45.1255C72.8915 44.6388 73.1934 44.1408 73.6637 44.0083C74.2695 43.8378 74.8579 44.2917 75.3251 44.7137C75.5531 44.9191 75.78 45.1234 76.008 45.3298C76.3047 45.0392 76.6128 44.7599 76.928 44.4909C77.3049 44.1705 77.7793 43.845 78.2548 43.9816C78.6162 44.0863 78.8637 44.4478 78.914 44.8205C78.9653 45.1943 78.8503 45.5722 78.686 45.9111C78.2476 46.8085 76.8757 48.2841 75.7841 48.3385C74.8682 48.3848 73.7725 47.1864 73.3207 46.4943Z" fill="#191919"/>
<path d="M73.3219 46.4947L73.937 46.0932C73.7234 45.7697 73.5992 45.4442 73.6033 45.1988L73.6043 45.1639V45.1598C73.6074 45.0561 73.6495 44.9298 73.707 44.8476L73.8641 44.7162L73.9329 44.7069C73.9996 44.7049 74.127 44.7377 74.2944 44.8394C74.4597 44.9369 74.6497 45.092 74.8345 45.2594C75.0624 45.4658 75.2894 45.6701 75.5163 45.8755C75.8049 46.1353 76.2444 46.1271 76.5216 45.856C76.8071 45.5777 77.1028 45.3097 77.4057 45.0509C77.5444 44.9318 77.6861 44.8271 77.8021 44.7644C77.9192 44.6987 78.0003 44.6833 78.027 44.6854L78.0527 44.6884L78.1153 44.7429L78.1872 44.9205L78.1923 45.0047C78.1944 45.1546 78.1358 45.3672 78.026 45.59L78.027 45.589C77.8699 45.9176 77.453 46.4762 76.9858 46.8993C76.7516 47.1129 76.5042 47.2967 76.2813 47.4199C76.0585 47.5452 75.8634 47.6016 75.7494 47.6047L75.734 47.6058C75.6026 47.6232 75.2021 47.4476 74.8355 47.117C74.4669 46.7986 74.1177 46.3715 73.937 46.0932L73.3219 46.4947L72.7068 46.8972C72.9697 47.2967 73.3733 47.7926 73.8734 48.228C74.3755 48.6501 74.9598 49.0577 75.734 49.0752L75.8223 49.0731C76.2536 49.0495 76.6387 48.9006 76.994 48.7065C77.5249 48.4098 77.9993 47.9949 78.4049 47.5575C78.8084 47.117 79.136 46.6631 79.3475 46.2339V46.2328C79.5139 45.8888 79.6607 45.4802 79.6628 45.0047C79.6628 44.9123 79.6566 44.8178 79.6433 44.7213C79.6002 44.4102 79.4821 44.1154 79.289 43.8587C79.097 43.603 78.8177 43.3792 78.4593 43.2755C78.3145 43.2344 78.1677 43.2149 78.027 43.2149C77.6573 43.217 77.3482 43.3371 77.0946 43.4757C76.8399 43.6154 76.6305 43.7807 76.4528 43.9317C76.1253 44.211 75.8059 44.5016 75.4958 44.8035L76.0092 45.3302L76.5021 44.7839C76.2731 44.5786 76.0462 44.3732 75.8193 44.1688C75.6057 43.9758 75.3531 43.7602 75.0491 43.5774C74.7452 43.3977 74.3755 43.2396 73.9329 43.2375C73.7799 43.2375 73.6218 43.258 73.4657 43.3012C73.0354 43.4233 72.7068 43.7037 72.4912 44.022C72.2755 44.3424 72.1544 44.709 72.1359 45.092V45.0879L72.1328 45.1988C72.1369 45.8786 72.4121 46.4433 72.7068 46.8972L73.3219 46.4947Z" fill="#191919"/>
<path d="M75.681 48.2147C76.3526 49.7118 77.3959 50.9718 78.7185 51.7963C79.3747 52.2122 80.1048 52.5121 80.8646 52.7185C81.6286 52.9208 82.4275 52.9998 83.2439 52.9916H83.2531C83.5088 52.9895 83.7172 53.1949 83.7193 53.4506C83.7214 53.6601 83.5817 53.8388 83.3897 53.8963C82.4922 54.1653 81.528 54.1951 80.5905 54.0482C79.6509 53.9035 78.7411 53.5502 77.9319 53.0327C76.3228 51.9925 75.1553 50.2889 74.8739 48.4447C74.839 48.2136 74.9982 47.998 75.2282 47.9631C75.4202 47.9343 75.602 48.038 75.678 48.2064L75.681 48.2147Z" fill="#191919"/>
<path d="M76.2067 48.8151C76.0609 49.5349 75.7343 50.2342 75.2805 50.8164C74.8286 51.4007 74.2916 51.9059 73.7063 52.3208C73.121 52.7356 72.4997 53.0796 71.8651 53.3723C71.2459 53.6742 70.5189 53.8621 69.8484 54.089L69.9038 54.0715C69.5403 54.166 69.2908 54.1814 68.993 54.1979C68.7075 54.2102 68.4261 54.1999 68.1489 54.1773C67.5954 54.1085 67.0563 53.9843 66.5532 53.7809C66.317 53.6844 66.204 53.4164 66.2995 53.1792C66.3786 52.9841 66.5778 52.8722 66.778 52.8948L66.7873 52.8958C67.2658 52.9492 67.7351 52.982 68.1961 52.9605C68.4251 52.9533 68.6521 52.9358 68.8728 52.9009C69.0792 52.8691 69.3339 52.8085 69.4571 52.7561L69.5126 52.7397C70.0907 52.4871 70.6647 52.3269 71.25 52.0425C71.8292 51.7714 72.3888 51.4798 72.9166 51.1501C73.9702 50.4899 74.8779 49.6715 75.4068 48.5624L75.4129 48.5501C75.5125 48.3396 75.7641 48.2503 75.9746 48.3509C76.1533 48.4361 76.2437 48.6292 76.2067 48.8151Z" fill="#191919"/>
<path d="M47.9185 43.3896C49.7597 43.9759 51.644 44.2552 53.5273 44.1669C54.4679 44.1299 55.4023 43.9965 56.3244 43.7962C57.2465 43.5929 58.1481 43.291 59.0446 42.9367C59.2797 42.8412 59.5498 42.9542 59.6453 43.1914C59.7264 43.3906 59.6535 43.6165 59.4872 43.7387C58.64 44.3466 57.6788 44.7892 56.6797 45.1075C55.6795 45.4289 54.6322 45.5932 53.5827 45.6312C51.4889 45.6938 49.351 45.2246 47.5694 44.1515C47.3702 44.0314 47.3055 43.7716 47.4257 43.5724C47.5283 43.4019 47.7368 43.3311 47.9185 43.3896Z" fill="#191919"/>
<path d="M103.56 42.6384C101.9 43.8922 99.8233 44.5802 97.7337 44.7362C96.6863 44.8091 95.6265 44.7537 94.5987 44.5381C93.5718 44.3255 92.5706 43.9856 91.6639 43.4681C91.4431 43.3428 91.3661 43.0614 91.4924 42.8396C91.5992 42.6527 91.822 42.5696 92.0213 42.626C92.9495 42.8848 93.8768 43.0912 94.8164 43.197C95.7539 43.2997 96.6965 43.3346 97.6361 43.274C99.5184 43.1651 101.364 42.6918 103.133 41.9165C103.346 41.821 103.596 41.9165 103.69 42.129C103.773 42.3108 103.712 42.5223 103.56 42.6384Z" fill="#191919"/>
<path d="M55.718 52.1368C55.7139 54.2921 52.6508 56.0306 48.8791 56.0234C45.1064 56.0152 42.0515 54.2613 42.0566 52.107C42.0608 49.9526 45.1229 48.2131 48.8955 48.2213C52.6682 48.2306 55.7231 49.9834 55.718 52.1368Z" fill="var(--secondary)"/>
<path d="M95.2273 52.3276C95.4142 54.4737 98.6128 55.9473 102.371 55.6207C106.129 55.2942 109.025 53.2877 108.837 51.1426C108.65 48.9964 105.453 47.5208 101.694 47.8494C97.9362 48.176 95.0404 50.1804 95.2273 52.3276Z" fill="var(--secondary)"/>
<path d="M33.6184 8.96379C33.0013 8.7307 32.2712 8.53662 31.7136 8.88986C31.1355 9.25748 31.0143 10.044 31.0307 10.729C31.0666 12.3185 31.5287 13.865 31.9867 15.3868C32.877 18.3503 33.7673 21.3138 34.6576 24.2773C36.2081 20.4585 39.0649 17.1838 42.6373 15.1301C40.6072 12.4305 36.7195 10.1365 33.6184 8.96379Z" fill="var(--secondary)"/>
<path d="M115.576 23.7887C117.338 20.8118 118.695 17.5957 119.599 14.2563C119.866 13.2685 120.095 12.2591 120.096 11.2363C120.096 9.95482 119.496 8.4515 118.232 8.23791C117.594 8.13112 116.956 8.38989 116.366 8.65379C113.337 10.0051 110.441 11.6502 107.727 13.556C110.842 16.7752 113.416 20.4391 115.443 24.4346C115.54 24.1573 115.426 24.0413 115.576 23.7887Z" fill="var(--secondary)"/>
<mask id="mask0_68_4420" style="mask-type:luminance" maskUnits="userSpaceOnUse" x="17" y="67" width="117" height="85">
<path d="M45.9889 67.3123C33.0895 71.66 22.6679 82.7306 19.1057 95.8683C15.5445 109.007 18.9465 123.826 27.8823 134.093C32.2228 139.081 38.2433 143.166 44.8542 143.106C46.1255 143.096 47.4748 142.897 48.4482 142.078C49.1475 141.49 49.5767 140.64 49.893 139.782C52.2004 133.521 49.3436 126.656 46.5341 120.603C44.5143 116.251 42.9032 112.781 40.8833 108.429L103.293 108.34C105.597 113.205 103.417 117.116 101.219 122.029C99.021 126.942 96.0216 131.598 95.0317 136.888C94.0408 142.179 95.7762 148.538 100.688 150.742C105.33 152.824 110.752 150.449 114.858 147.442C127.566 138.134 134.999 122.066 133.862 106.354C132.728 90.6426 123.061 75.8106 109.146 68.4275L45.9889 67.3123Z" fill="white"/>
</mask>
<g mask="url(#mask0_68_4420)">
<path d="M39.3655 85.2411C40.2589 85.9722 41.2724 86.7598 41.449 87.9006C41.7057 89.5559 39.8943 90.9473 38.2205 90.8847C36.5457 90.821 35.0855 89.7716 33.7989 88.6975C30.8898 86.271 20.5657 77.6331 27.9335 74.5515C30.7132 73.389 31.5377 75.0443 32.7802 77.174C34.5659 80.2372 36.6012 82.9789 39.3655 85.2411Z" fill="var(--secondary)"/>
</g>
<mask id="mask1_68_4420" style="mask-type:luminance" maskUnits="userSpaceOnUse" x="17" y="67" width="117" height="85">
<path d="M45.9889 67.3123C33.0895 71.66 22.6679 82.7306 19.1057 95.8683C15.5445 109.007 18.9465 123.826 27.8823 134.093C32.2228 139.081 38.2433 143.166 44.8542 143.106C46.1255 143.096 47.4748 142.897 48.4482 142.078C49.1475 141.49 49.5767 140.64 49.893 139.782C52.2004 133.521 49.3436 126.656 46.5341 120.603C44.5143 116.251 42.9032 112.781 40.8833 108.429L103.293 108.34C105.597 113.205 103.417 117.116 101.219 122.029C99.021 126.942 96.0216 131.598 95.0317 136.888C94.0408 142.179 95.7762 148.538 100.688 150.742C105.33 152.824 110.752 150.449 114.858 147.442C127.566 138.134 134.999 122.066 133.862 106.354C132.728 90.6426 123.061 75.8106 109.146 68.4275L45.9889 67.3123Z" fill="white"/>
</mask>
<g mask="url(#mask1_68_4420)">
<path d="M27.6859 92.3452C29.6626 93.8742 31.9176 95.1167 33.4805 97.0667C34.3574 98.1603 34.9992 99.6338 34.5146 100.949C34.0812 102.124 32.8202 102.85 31.5705 102.943C30.3219 103.037 29.0907 102.6 27.9755 102.031C24.9473 100.484 22.5362 97.9693 20.3182 95.3909C18.6188 93.4152 16.9378 91.2454 16.5209 88.6721C16.0547 85.7969 18.285 83.0326 21.0709 84.808C23.5733 86.4028 25.1516 90.3839 27.6859 92.3452Z" fill="var(--secondary)"/>
</g>
<mask id="mask2_68_4420" style="mask-type:luminance" maskUnits="userSpaceOnUse" x="17" y="67" width="117" height="85">
<path d="M45.9889 67.3123C33.0895 71.66 22.6679 82.7306 19.1057 95.8683C15.5445 109.007 18.9465 123.826 27.8823 134.093C32.2228 139.081 38.2433 143.166 44.8542 143.106C46.1255 143.096 47.4748 142.897 48.4482 142.078C49.1475 141.49 49.5767 140.64 49.893 139.782C52.2004 133.521 49.3436 126.656 46.5341 120.603C44.5143 116.251 42.9032 112.781 40.8833 108.429L103.293 108.34C105.597 113.205 103.417 117.116 101.219 122.029C99.021 126.942 96.0216 131.598 95.0317 136.888C94.0408 142.179 95.7762 148.538 100.688 150.742C105.33 152.824 110.752 150.449 114.858 147.442C127.566 138.134 134.999 122.066 133.862 106.354C132.728 90.6426 123.061 75.8106 109.146 68.4275L45.9889 67.3123Z" fill="white"/>
</mask>
<g mask="url(#mask2_68_4420)">
<path d="M110.593 85.0258C109.701 85.7004 108.794 86.411 108.23 87.3783C107.667 88.3446 107.52 89.6384 108.161 90.5554C108.728 91.3667 109.791 91.7117 110.779 91.6624C111.767 91.611 112.703 91.2239 113.607 90.8214C117.65 89.0244 121.503 86.8259 125.265 84.4959C127.866 82.8858 130.741 80.715 130.272 77.272C129.905 74.5847 127.92 72.993 125.294 73.4736C122.525 73.9788 120.615 76.5778 118.745 78.4077C116.236 80.8639 113.386 82.9115 110.593 85.0258Z" fill="var(--secondary)"/>
</g>
<mask id="mask3_68_4420" style="mask-type:luminance" maskUnits="userSpaceOnUse" x="17" y="67" width="117" height="85">
<path d="M45.9889 67.3123C33.0895 71.66 22.6679 82.7306 19.1057 95.8683C15.5445 109.007 18.9465 123.826 27.8823 134.093C32.2228 139.081 38.2433 143.166 44.8542 143.106C46.1255 143.096 47.4748 142.897 48.4482 142.078C49.1475 141.49 49.5767 140.64 49.893 139.782C52.2004 133.521 49.3436 126.656 46.5341 120.603C44.5143 116.251 42.9032 112.781 40.8833 108.429L103.293 108.34C105.597 113.205 103.417 117.116 101.219 122.029C99.021 126.942 96.0216 131.598 95.0317 136.888C94.0408 142.179 95.7762 148.538 100.688 150.742C105.33 152.824 110.752 150.449 114.858 147.442C127.566 138.134 134.999 122.066 133.862 106.354C132.728 90.6426 123.061 75.8106 109.146 68.4275L45.9889 67.3123Z" fill="white"/>
</mask>
<g mask="url(#mask3_68_4420)">
<path d="M131.397 89.9867C130.128 90.304 128.975 90.9622 127.84 91.6132C125.193 93.1309 122.545 94.6486 119.898 96.1663C118.333 97.0628 116.587 98.2313 116.428 100.027C116.261 101.925 118.125 103.52 120.017 103.73C121.911 103.942 123.759 103.145 125.46 102.286C128.801 100.601 131.985 98.6041 134.959 96.3317C138.78 93.4123 135.633 88.927 131.397 89.9867Z" fill="var(--secondary)"/>
</g>
<path d="M90.6596 91.0129C90.7335 91.7533 90.4316 92.4834 89.9644 93.0184C89.4951 93.5564 88.8585 93.9467 88.1428 94.0976C86.7185 94.382 85.2963 93.8306 84.2376 92.9855L84.9153 92.6775C84.8681 93.9425 84.6442 95.2015 84.2469 96.406C84.0476 97.0077 83.8084 97.5961 83.525 98.165C83.2426 98.7328 82.9089 99.3089 82.4273 99.8039C81.958 100.301 81.2741 100.708 80.5142 100.75C79.7605 100.792 79.0581 100.524 78.4872 100.13C77.3104 99.3007 76.7764 98.0161 76.2887 96.9102L77.2221 96.9112C76.6491 98.2256 75.7938 99.4404 74.5893 100.301C73.9885 100.724 73.2995 101.066 72.5427 101.202C71.7921 101.337 70.9922 101.284 70.2764 101.015C68.8347 100.474 67.7904 99.3069 67.1425 98.0315C66.4863 96.7489 66.1823 95.375 65.8815 94.0576L66.6075 94.3143C64.9542 95.5814 62.5586 95.6636 60.8437 94.4991C59.1463 93.3141 58.3741 91.0786 58.943 89.1338C58.9943 88.9602 59.1761 88.8596 59.3496 88.9109C59.5211 88.9612 59.6197 89.1399 59.5745 89.3114C59.134 90.977 59.8949 92.8982 61.3099 93.8019C62.7136 94.7199 64.7447 94.6357 66.0447 93.5944C66.2398 93.4384 66.5253 93.4692 66.6824 93.6653L66.7687 93.8419L66.7707 93.8512C67.0829 95.1645 67.3951 96.4594 67.9917 97.592C68.5688 98.7082 69.4919 99.6734 70.6153 100.075C71.7366 100.481 72.9956 100.199 73.9824 99.4527C74.9733 98.7185 75.7794 97.6711 76.2897 96.5107L76.2938 96.5015C76.4058 96.2458 76.7035 96.1308 76.9592 96.2437C77.0825 96.2971 77.1738 96.3967 77.2221 96.5117C77.6863 97.629 78.1761 98.7246 79.0438 99.3356C79.473 99.6416 79.9813 99.8275 80.4608 99.8039C80.9373 99.7813 81.3922 99.54 81.768 99.1559C82.5156 98.3776 83.0167 97.2254 83.4131 96.1246C83.7992 95.0043 84.024 93.8286 84.0815 92.6436C84.0908 92.4135 84.2849 92.2338 84.5138 92.2431L84.7593 92.3345C85.6803 93.0759 86.8674 93.578 88.0062 93.3798C89.0957 93.2022 90.1318 92.1805 90.0609 91.0612C90.0496 90.8959 90.1749 90.7531 90.3402 90.7418C90.5025 90.7315 90.6422 90.8527 90.6596 91.0129Z" fill="#191919"/>
<path d="M23.105 111.273C23.5116 111.66 23.7149 112.035 23.8977 112.429C24.0651 112.83 24.1945 113.228 24.1688 113.784L24.1657 113.846C24.1462 114.257 23.7981 114.573 23.3874 114.555C23.2836 114.551 23.183 114.522 23.0957 114.48C22.5279 114.203 22.1982 113.714 21.996 113.191C21.8101 112.663 21.731 112.08 21.9539 111.491C22.0874 111.136 22.4827 110.959 22.8359 111.092L23.0639 111.234L23.105 111.273Z" fill="var(--secondary)"/>
<path d="M23.426 118.776C23.7249 119.179 23.847 119.489 23.9549 119.818C24.0514 120.151 24.1099 120.464 24.0452 120.957L24.0288 121.085C23.9764 121.492 23.6027 121.779 23.196 121.726L22.9793 121.662C22.4156 121.402 22.1045 120.876 21.973 120.334C21.8539 119.787 21.8898 119.183 22.2585 118.686C22.4834 118.382 22.9126 118.318 23.2166 118.542L23.3593 118.683L23.426 118.776Z" fill="var(--secondary)"/>
<path d="M26.9312 117.119C27.496 117.414 27.8472 117.862 28.1224 118.346C28.3801 118.838 28.5567 119.38 28.4695 120.01C28.412 120.417 28.0372 120.7 27.6305 120.643C27.5104 120.627 27.4015 120.583 27.3091 120.517L27.2886 120.504C26.7916 120.154 26.5225 119.732 26.2977 119.279C26.0892 118.817 25.9218 118.34 25.9321 117.73V117.712C25.9393 117.335 26.2494 117.035 26.6273 117.04C26.7361 117.042 26.8409 117.072 26.9312 117.119Z" fill="var(--secondary)"/>
<path d="M130.674 109.599C131 110.107 131.088 110.615 131.112 111.122C131.118 111.629 131.052 112.135 130.727 112.643C130.501 112.996 130.033 113.1 129.679 112.874C129.584 112.813 129.505 112.732 129.448 112.643C129.124 112.135 129.058 111.629 129.063 111.122C129.088 110.615 129.175 110.107 129.502 109.599C129.711 109.277 130.142 109.183 130.466 109.392L130.674 109.599Z" fill="var(--secondary)"/>
<path d="M124.992 113.338C125.384 114.042 125.409 114.863 125.24 115.617C125.059 116.366 124.661 117.091 123.978 117.53C123.655 117.737 123.224 117.643 123.016 117.319C122.931 117.186 122.897 117.036 122.908 116.889L122.913 116.821C122.966 116.154 123.11 115.647 123.254 115.112C123.413 114.579 123.549 114.06 123.824 113.443L123.848 113.39C123.992 113.067 124.37 112.922 124.693 113.065C124.823 113.123 124.926 113.221 124.992 113.338Z" fill="var(--secondary)"/>
<path d="M128.376 119.685C128.768 120.256 128.776 120.973 128.584 121.595C128.382 122.213 127.946 122.791 127.281 123.009C126.907 123.131 126.503 122.925 126.381 122.551C126.35 122.456 126.34 122.36 126.349 122.266L126.363 122.118C126.411 121.599 126.515 121.277 126.648 120.927C126.79 120.58 126.926 120.255 127.212 119.807L127.276 119.703C127.472 119.396 127.879 119.306 128.186 119.501L128.376 119.685Z" fill="var(--secondary)"/>
</svg>
